<svg width="1120" height="48" viewBox="0 0 1120 48" fill="none" xmlns="http://www.w3.org/2000/svg">
<rect x="925" width="195" height="48" rx="5" fill="#6933FF"/>
<path d="M968.125 30H965.885L960.813 22.336V30H958.573V18.816H960.813L965.885 26.496V18.816H968.125V30ZM974.274 30.144C973.421 30.144 972.653 29.9573 971.97 29.584C971.288 29.2 970.749 28.6613 970.354 27.968C969.97 27.2747 969.778 26.4747 969.778 25.568C969.778 24.6613 969.976 23.8613 970.37 23.168C970.776 22.4747 971.325 21.9413 972.018 21.568C972.712 21.184 973.485 20.992 974.338 20.992C975.192 20.992 975.965 21.184 976.658 21.568C977.352 21.9413 977.896 22.4747 978.29 23.168C978.696 23.8613 978.898 24.6613 978.898 25.568C978.898 26.4747 978.69 27.2747 978.274 27.968C977.869 28.6613 977.314 29.2 976.61 29.584C975.917 29.9573 975.138 30.144 974.274 30.144ZM974.274 28.192C974.68 28.192 975.058 28.096 975.41 27.904C975.773 27.7013 976.061 27.4027 976.274 27.008C976.488 26.6133 976.594 26.1333 976.594 25.568C976.594 24.7253 976.37 24.08 975.922 23.632C975.485 23.1733 974.946 22.944 974.306 22.944C973.666 22.944 973.128 23.1733 972.69 23.632C972.264 24.08 972.05 24.7253 972.05 25.568C972.05 26.4107 972.258 27.0613 972.674 27.52C973.101 27.968 973.634 28.192 974.274 28.192ZM984.238 27.936L986.478 21.136H988.862L985.582 30H982.862L979.598 21.136H981.998L984.238 27.936ZM989.544 25.536C989.544 24.64 989.72 23.8453 990.072 23.152C990.434 22.4587 990.92 21.9253 991.528 21.552C992.146 21.1787 992.834 20.992 993.592 20.992C994.253 20.992 994.829 21.1253 995.32 21.392C995.821 21.6587 996.221 21.9947 996.52 22.4V21.136H998.776V30H996.52V28.704C996.232 29.12 995.832 29.4667 995.32 29.744C994.818 30.0107 994.237 30.144 993.576 30.144C992.829 30.144 992.146 29.952 991.528 29.568C990.92 29.184 990.434 28.6453 990.072 27.952C989.72 27.248 989.544 26.4427 989.544 25.536ZM996.52 25.568C996.52 25.024 996.413 24.56 996.2 24.176C995.986 23.7813 995.698 23.4827 995.336 23.28C994.973 23.0667 994.584 22.96 994.168 22.96C993.752 22.96 993.368 23.0613 993.016 23.264C992.664 23.4667 992.376 23.7653 992.152 24.16C991.938 24.544 991.832 25.0027 991.832 25.536C991.832 26.0693 991.938 26.5387 992.152 26.944C992.376 27.3387 992.664 27.6427 993.016 27.856C993.378 28.0693 993.762 28.176 994.168 28.176C994.584 28.176 994.973 28.0747 995.336 27.872C995.698 27.6587 995.986 27.36 996.2 26.976C996.413 26.5813 996.52 26.112 996.52 25.568ZM1007.38 22.976V27.264C1007.38 27.5627 1007.45 27.7813 1007.59 27.92C1007.74 28.048 1007.99 28.112 1008.33 28.112H1009.37V30H1007.96C1006.07 30 1005.13 29.0827 1005.13 27.248V22.976H1004.07V21.136H1005.13V18.944H1007.38V21.136H1009.37V22.976H1007.38ZM1013.22 22.512C1013.51 22.0427 1013.88 21.6747 1014.34 21.408C1014.81 21.1413 1015.34 21.008 1015.94 21.008V23.36H1015.35C1014.64 23.36 1014.11 23.5253 1013.75 23.856C1013.4 24.1867 1013.22 24.7627 1013.22 25.584V30H1010.98V21.136H1013.22V22.512ZM1016.87 25.536C1016.87 24.64 1017.05 23.8453 1017.4 23.152C1017.76 22.4587 1018.25 21.9253 1018.86 21.552C1019.47 21.1787 1020.16 20.992 1020.92 20.992C1021.58 20.992 1022.16 21.1253 1022.65 21.392C1023.15 21.6587 1023.55 21.9947 1023.85 22.4V21.136H1026.1V30H1023.85V28.704C1023.56 29.12 1023.16 29.4667 1022.65 29.744C1022.15 30.0107 1021.57 30.144 1020.9 30.144C1020.16 30.144 1019.47 29.952 1018.86 29.568C1018.25 29.184 1017.76 28.6453 1017.4 27.952C1017.05 27.248 1016.87 26.4427 1016.87 25.536ZM1023.85 25.568C1023.85 25.024 1023.74 24.56 1023.53 24.176C1023.31 23.7813 1023.03 23.4827 1022.66 23.28C1022.3 23.0667 1021.91 22.96 1021.5 22.96C1021.08 22.96 1020.7 23.0613 1020.34 23.264C1019.99 23.4667 1019.7 23.7653 1019.48 24.16C1019.27 24.544 1019.16 25.0027 1019.16 25.536C1019.16 26.0693 1019.27 26.5387 1019.48 26.944C1019.7 27.3387 1019.99 27.6427 1020.34 27.856C1020.71 28.0693 1021.09 28.176 1021.5 28.176C1021.91 28.176 1022.3 28.0747 1022.66 27.872C1023.03 27.6587 1023.31 27.36 1023.53 26.976C1023.74 26.5813 1023.85 26.112 1023.85 25.568ZM1033.2 21.008C1034.26 21.008 1035.11 21.344 1035.76 22.016C1036.41 22.6773 1036.74 23.6053 1036.74 24.8V30H1034.5V25.104C1034.5 24.4 1034.32 23.8613 1033.97 23.488C1033.62 23.104 1033.14 22.912 1032.53 22.912C1031.91 22.912 1031.42 23.104 1031.06 23.488C1030.71 23.8613 1030.53 24.4 1030.53 25.104V30H1028.29V21.136H1030.53V22.24C1030.83 21.856 1031.21 21.5573 1031.67 21.344C1032.14 21.12 1032.65 21.008 1033.2 21.008ZM1042.26 30.144C1041.54 30.144 1040.89 30.016 1040.31 29.76C1039.73 29.4933 1039.27 29.136 1038.93 28.688C1038.6 28.24 1038.42 27.744 1038.39 27.2H1040.65C1040.69 27.5413 1040.85 27.824 1041.14 28.048C1041.44 28.272 1041.81 28.384 1042.25 28.384C1042.67 28.384 1043 28.2987 1043.24 28.128C1043.48 27.9573 1043.61 27.7387 1043.61 27.472C1043.61 27.184 1043.46 26.9707 1043.16 26.832C1042.87 26.6827 1042.41 26.5227 1041.77 26.352C1041.1 26.192 1040.56 26.0267 1040.13 25.856C1039.72 25.6853 1039.35 25.424 1039.05 25.072C1038.75 24.72 1038.6 24.2453 1038.6 23.648C1038.6 23.1573 1038.74 22.7093 1039.01 22.304C1039.3 21.8987 1039.71 21.5787 1040.23 21.344C1040.76 21.1093 1041.39 20.992 1042.1 20.992C1043.16 20.992 1044 21.2587 1044.63 21.792C1045.26 22.3147 1045.61 23.024 1045.67 23.92H1043.53C1043.49 23.568 1043.34 23.2907 1043.08 23.088C1042.82 22.8747 1042.47 22.768 1042.04 22.768C1041.63 22.768 1041.32 22.8427 1041.09 22.992C1040.88 23.1413 1040.77 23.3493 1040.77 23.616C1040.77 23.9147 1040.92 24.144 1041.22 24.304C1041.52 24.4533 1041.98 24.608 1042.61 24.768C1043.25 24.928 1043.78 25.0933 1044.2 25.264C1044.61 25.4347 1044.97 25.7013 1045.27 26.064C1045.58 26.416 1045.74 26.8853 1045.75 27.472C1045.75 27.984 1045.61 28.4427 1045.32 28.848C1045.04 29.2533 1044.63 29.5733 1044.1 29.808C1043.58 30.032 1042.97 30.144 1042.26 30.144ZM1047.01 25.536C1047.01 24.64 1047.19 23.8453 1047.54 23.152C1047.9 22.4587 1048.39 21.9253 1049 21.552C1049.62 21.1787 1050.3 20.992 1051.06 20.992C1051.72 20.992 1052.3 21.1253 1052.79 21.392C1053.29 21.6587 1053.69 21.9947 1053.99 22.4V21.136H1056.24V30H1053.99V28.704C1053.7 29.12 1053.3 29.4667 1052.79 29.744C1052.29 30.0107 1051.71 30.144 1051.04 30.144C1050.3 30.144 1049.62 29.952 1049 29.568C1048.39 29.184 1047.9 28.6453 1047.54 27.952C1047.19 27.248 1047.01 26.4427 1047.01 25.536ZM1053.99 25.568C1053.99 25.024 1053.88 24.56 1053.67 24.176C1053.46 23.7813 1053.17 23.4827 1052.8 23.28C1052.44 23.0667 1052.05 22.96 1051.64 22.96C1051.22 22.96 1050.84 23.0613 1050.48 23.264C1050.13 23.4667 1049.84 23.7653 1049.62 24.16C1049.41 24.544 1049.3 25.0027 1049.3 25.536C1049.3 26.0693 1049.41 26.5387 1049.62 26.944C1049.84 27.3387 1050.13 27.6427 1050.48 27.856C1050.85 28.0693 1051.23 28.176 1051.64 28.176C1052.05 28.176 1052.44 28.0747 1052.8 27.872C1053.17 27.6587 1053.46 27.36 1053.67 26.976C1053.88 26.5813 1053.99 26.112 1053.99 25.568ZM1062.22 28.224C1063.13 28.224 1063.72 27.8187 1064 27.008H1066.42C1066.19 27.872 1065.78 28.576 1065.17 29.12C1064.57 29.664 1063.82 29.9893 1062.91 30.096V30.72C1063.5 30.72 1063.99 30.8693 1064.38 31.168C1064.79 31.4667 1064.99 31.8987 1064.99 32.464C1064.99 33.04 1064.78 33.4827 1064.37 33.792C1063.96 34.1013 1063.46 34.256 1062.86 34.256H1060.59V32.944H1062.5C1062.75 32.944 1062.94 32.9067 1063.07 32.832C1063.21 32.7573 1063.28 32.624 1063.28 32.432C1063.28 32.24 1063.21 32.1067 1063.07 32.032C1062.94 31.968 1062.75 31.936 1062.5 31.936H1061.5V30.096C1060.78 29.9893 1060.14 29.7387 1059.58 29.344C1059.04 28.9387 1058.61 28.416 1058.3 27.776C1058.01 27.1253 1057.86 26.3893 1057.86 25.568C1057.86 24.6507 1058.04 23.8507 1058.42 23.168C1058.79 22.4747 1059.31 21.9413 1059.97 21.568C1060.63 21.184 1061.39 20.992 1062.24 20.992C1063.34 20.992 1064.25 21.2693 1064.96 21.824C1065.69 22.368 1066.17 23.136 1066.42 24.128H1064C1063.87 23.744 1063.65 23.4453 1063.34 23.232C1063.05 23.008 1062.67 22.896 1062.22 22.896C1061.58 22.896 1061.08 23.1307 1060.7 23.6C1060.33 24.0587 1060.14 24.7147 1060.14 25.568C1060.14 26.4107 1060.33 27.0667 1060.7 27.536C1061.08 27.9947 1061.58 28.224 1062.22 28.224ZM1067.48 25.536C1067.48 24.64 1067.66 23.8453 1068.01 23.152C1068.37 22.4587 1068.86 21.9253 1069.47 21.552C1070.08 21.1787 1070.77 20.992 1071.53 20.992C1072.19 20.992 1072.77 21.1253 1073.26 21.392C1073.76 21.6587 1074.16 21.9947 1074.46 22.4V21.136H1076.71V30H1074.46V28.704C1074.17 29.12 1073.77 29.4667 1073.26 29.744C1072.76 30.0107 1072.17 30.144 1071.51 30.144C1070.77 30.144 1070.08 29.952 1069.47 29.568C1068.86 29.184 1068.37 28.6453 1068.01 27.952C1067.66 27.248 1067.48 26.4427 1067.48 25.536ZM1074.46 25.568C1074.46 25.024 1074.35 24.56 1074.14 24.176C1073.92 23.7813 1073.64 23.4827 1073.27 23.28C1072.91 23.0667 1072.52 22.96 1072.11 22.96C1071.69 22.96 1071.31 23.0613 1070.95 23.264C1070.6 23.4667 1070.31 23.7653 1070.09 24.16C1069.88 24.544 1069.77 25.0027 1069.77 25.536C1069.77 26.0693 1069.88 26.5387 1070.09 26.944C1070.31 27.3387 1070.6 27.6427 1070.95 27.856C1071.32 28.0693 1071.7 28.176 1072.11 28.176C1072.52 28.176 1072.91 28.0747 1073.27 27.872C1073.64 27.6587 1073.92 27.36 1074.14 26.976C1074.35 26.5813 1074.46 26.112 1074.46 25.568ZM1069.53 20.288C1069.63 19.584 1069.84 19.0613 1070.19 18.72C1070.54 18.368 1070.98 18.192 1071.51 18.192C1071.74 18.192 1071.93 18.2293 1072.11 18.304C1072.28 18.368 1072.47 18.464 1072.68 18.592C1073 18.7947 1073.27 18.896 1073.48 18.896C1073.88 18.896 1074.11 18.6667 1074.17 18.208H1075.37C1075.27 18.912 1075.05 19.44 1074.7 19.792C1074.36 20.1333 1073.92 20.304 1073.39 20.304C1073.16 20.304 1072.96 20.272 1072.79 20.208C1072.62 20.1333 1072.43 20.032 1072.22 19.904C1071.91 19.6907 1071.64 19.584 1071.42 19.584C1071.02 19.584 1070.79 19.8187 1070.71 20.288H1069.53ZM1082.84 30.144C1081.98 30.144 1081.22 29.9573 1080.53 29.584C1079.85 29.2 1079.31 28.6613 1078.92 27.968C1078.53 27.2747 1078.34 26.4747 1078.34 25.568C1078.34 24.6613 1078.54 23.8613 1078.93 23.168C1079.34 22.4747 1079.89 21.9413 1080.58 21.568C1081.27 21.184 1082.05 20.992 1082.9 20.992C1083.75 20.992 1084.53 21.184 1085.22 21.568C1085.91 21.9413 1086.46 22.4747 1086.85 23.168C1087.26 23.8613 1087.46 24.6613 1087.46 25.568C1087.46 26.4747 1087.25 27.2747 1086.84 27.968C1086.43 28.6613 1085.88 29.2 1085.17 29.584C1084.48 29.9573 1083.7 30.144 1082.84 30.144ZM1082.84 28.192C1083.24 28.192 1083.62 28.096 1083.97 27.904C1084.34 27.7013 1084.62 27.4027 1084.84 27.008C1085.05 26.6133 1085.16 26.1333 1085.16 25.568C1085.16 24.7253 1084.93 24.08 1084.48 23.632C1084.05 23.1733 1083.51 22.944 1082.87 22.944C1082.23 22.944 1081.69 23.1733 1081.25 23.632C1080.83 24.08 1080.61 24.7253 1080.61 25.568C1080.61 26.4107 1080.82 27.0613 1081.24 27.52C1081.66 27.968 1082.2 28.192 1082.84 28.192Z" fill="white"/>
<path d="M56.792 25.304C56.792 23.96 57.056 22.768 57.584 21.728C58.128 20.688 58.864 19.888 59.792 19.328C60.72 18.768 61.752 18.488 62.888 18.488C63.752 18.488 64.576 18.68 65.36 19.064C66.144 19.432 66.768 19.928 67.232 20.552V14.24H70.64V32H67.232V30.032C66.816 30.688 66.232 31.216 65.48 31.616C64.728 32.016 63.856 32.216 62.864 32.216C61.744 32.216 60.72 31.928 59.792 31.352C58.864 30.776 58.128 29.968 57.584 28.928C57.056 27.872 56.792 26.664 56.792 25.304ZM67.256 25.352C67.256 24.536 67.096 23.84 66.776 23.264C66.456 22.672 66.024 22.224 65.48 21.92C64.936 21.6 64.352 21.44 63.728 21.44C63.104 21.44 62.528 21.592 62 21.896C61.472 22.2 61.04 22.648 60.704 23.24C60.384 23.816 60.224 24.504 60.224 25.304C60.224 26.104 60.384 26.808 60.704 27.416C61.04 28.008 61.472 28.464 62 28.784C62.544 29.104 63.12 29.264 63.728 29.264C64.352 29.264 64.936 29.112 65.48 28.808C66.024 28.488 66.456 28.04 66.776 27.464C67.096 26.872 67.256 26.168 67.256 25.352Z" fill="white"/>
<path d="M77.8336 21.464V27.896C77.8336 28.344 77.9376 28.672 78.1456 28.88C78.3696 29.072 78.7376 29.168 79.2496 29.168H80.8096V32H78.6976C75.8656 32 74.4496 30.624 74.4496 27.872V21.464H72.8656V18.704H74.4496V15.416H77.8336V18.704H80.8096V21.464H77.8336Z" fill="white"/>
<path d="M105.457 18.512C107.089 18.512 108.401 19.016 109.393 20.024C110.401 21.016 110.905 22.408 110.905 24.2V32H107.545V24.656C107.545 23.616 107.281 22.824 106.753 22.28C106.225 21.72 105.505 21.44 104.593 21.44C103.681 21.44 102.953 21.72 102.409 22.28C101.881 22.824 101.617 23.616 101.617 24.656V32H98.2571V24.656C98.2571 23.616 97.9931 22.824 97.4651 22.28C96.9371 21.72 96.2171 21.44 95.3051 21.44C94.3771 21.44 93.6411 21.72 93.0971 22.28C92.5691 22.824 92.3051 23.616 92.3051 24.656V32H88.9451V18.704H92.3051V20.312C92.7371 19.752 93.2891 19.312 93.9611 18.992C94.6491 18.672 95.4011 18.512 96.2171 18.512C97.2571 18.512 98.1851 18.736 99.0011 19.184C99.8171 19.616 100.449 20.24 100.897 21.056C101.329 20.288 101.953 19.672 102.769 19.208C103.601 18.744 104.497 18.512 105.457 18.512Z" fill="white"/>
<path d="M119.997 32.216C118.717 32.216 117.565 31.936 116.541 31.376C115.517 30.8 114.709 29.992 114.117 28.952C113.541 27.912 113.253 26.712 113.253 25.352C113.253 23.992 113.549 22.792 114.141 21.752C114.749 20.712 115.573 19.912 116.613 19.352C117.653 18.776 118.813 18.488 120.093 18.488C121.373 18.488 122.533 18.776 123.573 19.352C124.613 19.912 125.429 20.712 126.021 21.752C126.629 22.792 126.933 23.992 126.933 25.352C126.933 26.712 126.621 27.912 125.997 28.952C125.389 29.992 124.557 30.8 123.501 31.376C122.461 31.936 121.293 32.216 119.997 32.216ZM119.997 29.288C120.605 29.288 121.173 29.144 121.701 28.856C122.245 28.552 122.677 28.104 122.997 27.512C123.317 26.92 123.477 26.2 123.477 25.352C123.477 24.088 123.141 23.12 122.469 22.448C121.813 21.76 121.005 21.416 120.045 21.416C119.085 21.416 118.277 21.76 117.621 22.448C116.981 23.12 116.661 24.088 116.661 25.352C116.661 26.616 116.973 27.592 117.597 28.28C118.237 28.952 119.037 29.288 119.997 29.288Z" fill="white"/>
<path d="M136.766 18.512C138.35 18.512 139.63 19.016 140.606 20.024C141.582 21.016 142.07 22.408 142.07 24.2V32H138.71V24.656C138.71 23.6 138.446 22.792 137.918 22.232C137.39 21.656 136.67 21.368 135.758 21.368C134.83 21.368 134.094 21.656 133.55 22.232C133.022 22.792 132.758 23.6 132.758 24.656V32H129.398V18.704H132.758V20.36C133.206 19.784 133.774 19.336 134.462 19.016C135.166 18.68 135.934 18.512 136.766 18.512Z" fill="white"/>
<path d="M157.625 25.064C157.625 25.544 157.593 25.976 157.529 26.36H147.809C147.889 27.32 148.225 28.072 148.817 28.616C149.409 29.16 150.137 29.432 151.001 29.432C152.249 29.432 153.137 28.896 153.665 27.824H157.289C156.905 29.104 156.169 30.16 155.081 30.992C153.993 31.808 152.657 32.216 151.073 32.216C149.793 32.216 148.641 31.936 147.617 31.376C146.609 30.8 145.817 29.992 145.241 28.952C144.681 27.912 144.401 26.712 144.401 25.352C144.401 23.976 144.681 22.768 145.241 21.728C145.801 20.688 146.585 19.888 147.593 19.328C148.601 18.768 149.761 18.488 151.073 18.488C152.337 18.488 153.465 18.76 154.457 19.304C155.465 19.848 156.241 20.624 156.785 21.632C157.345 22.624 157.625 23.768 157.625 25.064ZM154.145 24.104C154.129 23.24 153.817 22.552 153.209 22.04C152.601 21.512 151.857 21.248 150.977 21.248C150.145 21.248 149.441 21.504 148.865 22.016C148.305 22.512 147.961 23.208 147.833 24.104H154.145Z" fill="white"/>
<path d="M172.798 18.704L164.566 38.288H160.99L163.87 31.664L158.542 18.704H162.31L165.742 27.992L169.222 18.704H172.798Z" fill="white"/>
<path d="M34.1422 9.85781C30.3647 6.08031 25.3422 4 20 4C14.6578 4 9.63531 6.08031 5.85781 9.85781C2.08031 13.6353 0 18.6578 0 24C0 29.3422 2.08039 34.3646 5.85781 38.1422C9.63523 41.9198 14.6578 44 20 44C25.3422 44 30.3647 41.9197 34.1422 38.1422C37.9197 34.3647 40 29.3422 40 24C40 18.6578 37.9196 13.6354 34.1422 9.85781Z" fill="#33CC95"/>
<g clip-path="url(#clip0)">
<path d="M20.5714 12V37.1429" stroke="white" stroke-width="2" stroke-linecap="round" stroke-linejoin="round"/>
<path d="M26.2857 16.5714H17.7143C16.6534 16.5714 15.636 16.9929 14.8859 17.743C14.1357 18.4931 13.7143 19.5106 13.7143 20.5714C13.7143 21.6323 14.1357 22.6497 14.8859 23.3999C15.636 24.15 16.6534 24.5714 17.7143 24.5714H23.4286C24.4894 24.5714 25.5069 24.9929 26.257 25.743C27.0072 26.4932 27.4286 27.5106 27.4286 28.5714C27.4286 29.6323 27.0072 30.6497 26.257 31.3999C25.5069 32.15 24.4894 32.5714 23.4286 32.5714H13.7143" stroke="white" stroke-width="2" stroke-linecap="round" stroke-linejoin="round"/>
</g>
<defs>
<clipPath id="clip0">
<rect width="27.4286" height="27.4286" fill="white" transform="translate(6.85715 10.8571)"/>
</clipPath>
</defs>
</svg>
